<?xml version="1.0"?><svg width="640" height="480" xmlns="http://www.w3.org/2000/svg" xmlns:xlink="http://www.w3.org/1999/xlink">
 <g>
  <title>Layer 1</title>
  <g>
   <defs fill="#007fff">
    <rect fill="#007fff" height="300" width="300" id="SVGID_1_"/>
   </defs>
   <clipPath fill="#007fff" id="SVGID_2_">
    <use fill="#007fff" xlink:href="#SVGID_1_"/>
   </clipPath>
   <g clip-path="url(#SVGID_2_)" id="surface0">
    <path d="m187.727005,35.941002c10.306,-1.429001 20.778992,5.714996 23.39801,15.75c2.656998,8.731998 -1.389999,18.616997 -8.835007,23.646996c-5.604996,3.597 -12.875992,4.701004 -19.155014,2.274002c-6.891998,-2.288002 -12.167999,-8.364998 -13.737,-15.422001c-1.735001,-5.236 -0.132996,-10.889 2.34201,-15.604c3.167999,-5.917999 9.472,-9.626999 15.987,-10.644997z" stroke-miterlimit="10" stroke-width="0.1" stroke="#000000" fill="#007fff"/>
    <path fill="#007fff" d="m187.727005,35.941002c10.306,-1.429001 20.778992,5.714996 23.39801,15.75c2.656998,8.731998 -1.389999,18.616997 -8.835007,23.646996c-5.604996,3.597 -12.875992,4.701004 -19.155014,2.274002c-6.891998,-2.288002 -12.167999,-8.364998 -13.737,-15.422001c-1.735001,-5.236 -0.132996,-10.889 2.34201,-15.604c3.167999,-5.917999 9.472,-9.626999 15.987,-10.644997z"/>
    <path d="m264.71701,81.488998c4.312988,-10.387001 9.243988,-20.539997 12.246002,-31.411999c1.371002,8.265999 0.231995,16.636997 0.406006,24.953999c0.17099,10.066002 1.367004,21.113998 -4.111023,30.117004c-1.882996,3.512001 -5.628998,5.623001 -9.478973,6.228996c-9.980011,1.058998 -20.041016,-0.609001 -29.609009,-3.438995c-6.287003,-1.846001 -12.707001,-4.104004 -17.768005,-8.410004c-3.356995,-2.738998 -5.104996,-7.603996 -3.335999,-11.726997c1.395996,-3.980003 5.921997,-5.845001 9.889008,-5.636002c7.598999,-0.459 14.633987,2.715996 21.625,5.191002c4.519989,1.779999 8.72699,4.245995 13.132996,6.278999c2.329987,-4.049004 5.161987,-7.829002 7.003998,-12.146004z" stroke-miterlimit="10" stroke-width="0.1" stroke="#000000" fill="#007fff"/>
    <path fill="#007fff" d="m264.71701,81.488998c4.312988,-10.387001 9.243988,-20.539997 12.246002,-31.411999c1.371002,8.265999 0.231995,16.636997 0.406006,24.953999c0.17099,10.066002 1.367004,21.113998 -4.111023,30.117004c-1.882996,3.512001 -5.628998,5.623001 -9.478973,6.228996c-9.980011,1.058998 -20.041016,-0.609001 -29.609009,-3.438995c-6.287003,-1.846001 -12.707001,-4.104004 -17.768005,-8.410004c-3.356995,-2.738998 -5.104996,-7.603996 -3.335999,-11.726997c1.395996,-3.980003 5.921997,-5.845001 9.889008,-5.636002c7.598999,-0.459 14.633987,2.715996 21.625,5.191002c4.519989,1.779999 8.72699,4.245995 13.132996,6.278999c2.329987,-4.049004 5.161987,-7.829002 7.003998,-12.146004z"/>
    <path d="m70.016998,74.835999c18.660004,0.774002 37.366005,2.854004 56.032005,1.042999c11.380989,-0.478996 22.85099,-2.717995 34.200996,-0.706001c5.798004,1.542 8.744003,9.961006 4.421997,14.415001c-2.041992,2.517006 -5.182999,4.010002 -8.388992,4.270004c-8.281006,1.199997 -16.503998,-0.884003 -24.722,-1.637001c-12.179001,-2.113998 -24.102005,-5.458 -36.066002,-8.526001c-8.924004,-1.554001 -17.091003,-5.628998 -25.478004,-8.859001z" stroke-miterlimit="10" stroke-width="0.1" stroke="#000000" fill="#007fff"/>
    <path fill="#007fff" d="m70.016998,74.835999c18.660004,0.774002 37.366005,2.854004 56.032005,1.042999c11.380989,-0.478996 22.85099,-2.717995 34.200996,-0.706001c5.798004,1.542 8.744003,9.961006 4.421997,14.415001c-2.041992,2.517006 -5.182999,4.010002 -8.388992,4.270004c-8.281006,1.199997 -16.503998,-0.884003 -24.722,-1.637001c-12.179001,-2.113998 -24.102005,-5.458 -36.066002,-8.526001c-8.924004,-1.554001 -17.091003,-5.628998 -25.478004,-8.859001z"/>
    <path d="m120.222,109.257004c9.126999,-6.066002 18.587006,-12.888 29.871994,-13.787003c5.714005,-0.673004 11.050003,2.667 14.380005,7.083c6.078995,8.943001 10.518005,18.923996 13.583008,29.277992c4.676987,-4.609993 9.809998,-10.231995 16.914993,-10.205994c3.869003,0.413002 8.171997,1.911003 10.104996,5.570999c2.084,3.360001 1.537003,7.481995 1.001999,11.192001c-1.442993,7.044006 -5.212997,13.414001 -10.007996,18.697998c-9.136993,10.065002 -20.246002,18.048004 -31.492996,25.570999c-8.929001,6.139008 -18.553009,11.171997 -28.229004,16.01001c5.994995,-11.563004 13.949997,-22.073013 19.647995,-33.797012c-0.932999,-4.035995 -3.647995,-7.491989 -4.518997,-11.597992c-3.251999,-10.151001 -4.748001,-20.714996 -6.447998,-31.205002c-17.621002,4.538002 -34.599998,11.279999 -52.236,15.778992c-4.710999,1.213013 -9.361,2.675003 -14.131996,3.646011c4.689995,-4.577011 9.306,-9.259003 14.311996,-13.494003c9.030998,-6.32 18.238998,-12.388 27.248001,-18.740997z" stroke-miterlimit="10" stroke-width="0.1" stroke="#000000" fill="#007fff"/>
    <path fill="#007fff" d="m120.222,109.257004c9.126999,-6.066002 18.587006,-12.888 29.871994,-13.787003c5.714005,-0.673004 11.050003,2.667 14.380005,7.083c6.078995,8.943001 10.518005,18.923996 13.583008,29.277992c4.676987,-4.609993 9.809998,-10.231995 16.914993,-10.205994c3.869003,0.413002 8.171997,1.911003 10.104996,5.570999c2.084,3.360001 1.537003,7.481995 1.001999,11.192001c-1.442993,7.044006 -5.212997,13.414001 -10.007996,18.697998c-9.136993,10.065002 -20.246002,18.048004 -31.492996,25.570999c-8.929001,6.139008 -18.553009,11.171997 -28.229004,16.01001c5.994995,-11.563004 13.949997,-22.073013 19.647995,-33.797012c-0.932999,-4.035995 -3.647995,-7.491989 -4.518997,-11.597992c-3.251999,-10.151001 -4.748001,-20.714996 -6.447998,-31.205002c-17.621002,4.538002 -34.599998,11.279999 -52.236,15.778992c-4.710999,1.213013 -9.361,2.675003 -14.131996,3.646011c4.689995,-4.577011 9.306,-9.259003 14.311996,-13.494003c9.030998,-6.32 18.238998,-12.388 27.248001,-18.740997z"/>
    <path d="m36.169998,106.134003c4.219002,-1.295006 9.018002,-0.407005 12.607002,2.140999c5.82,4 8.867001,10.560997 12.956001,16.087997c12.237,16.823997 26.490997,32.060997 41.323997,46.605995c18.024002,17.476013 37.297005,33.684006 57.806007,48.170013c7.740997,6 16.35199,10.832993 23.772995,17.23999c3.912003,3.044998 5.472,8.835999 2.985992,13.247009c-3.23999,5.281998 -7.868988,9.652985 -13.120987,12.911987c-4.609009,2.722015 -10.807007,3.032013 -15.374008,0.056c-5.990997,-3.829987 -9.658005,-10.138992 -14.772003,-14.927994c-7.612,-7.369003 -15.453995,-14.509003 -22.810997,-22.136993c-20.597,-20.127014 -42.072998,-39.332001 -63.031998,-59.080002c-11.120003,-9.878006 -24.183002,-17.702011 -33.515001,-29.484009c-4.75,-5.807999 -5.146,-14.713997 -1.181,-21.026993c3.247999,-4.147003 7.283001,-8.056 12.353998,-9.804001z" stroke-miterlimit="10" stroke-width="0.1" stroke="#000000" fill="#007fff"/>
    <path fill="#007fff" d="m36.169998,106.134003c4.219002,-1.295006 9.018002,-0.407005 12.607002,2.140999c5.82,4 8.867001,10.560997 12.956001,16.087997c12.237,16.823997 26.490997,32.060997 41.323997,46.605995c18.024002,17.476013 37.297005,33.684006 57.806007,48.170013c7.740997,6 16.35199,10.832993 23.772995,17.23999c3.912003,3.044998 5.472,8.835999 2.985992,13.247009c-3.23999,5.281998 -7.868988,9.652985 -13.120987,12.911987c-4.609009,2.722015 -10.807007,3.032013 -15.374008,0.056c-5.990997,-3.829987 -9.658005,-10.138992 -14.772003,-14.927994c-7.612,-7.369003 -15.453995,-14.509003 -22.810997,-22.136993c-20.597,-20.127014 -42.072998,-39.332001 -63.031998,-59.080002c-11.120003,-9.878006 -24.183002,-17.702011 -33.515001,-29.484009c-4.75,-5.807999 -5.146,-14.713997 -1.181,-21.026993c3.247999,-4.147003 7.283001,-8.056 12.353998,-9.804001z"/>
    <path d="m28.704,119.886002c2.511,-3.626999 6.037001,-6.730003 10.266001,-8.150002c4.150997,-0.889 7.583,2.314003 10.091999,5.179001c2.922001,3.809998 5.243999,8.045998 8.172001,11.855003c20.381996,26.962997 44.625,50.778 70.310997,72.654999c14.475006,12.061996 29.794998,23.052002 45.272003,33.776001c3.634003,2.696991 7.862991,4.955002 10.186996,9.013c-2.293991,6.291992 -7.806,11.369995 -13.910995,13.962997c-3.953003,1.678009 -7.632996,-1.209991 -10.298996,-3.835007c-4.145004,-4.559998 -8.151001,-9.253998 -12.62001,-13.503998c-9.214996,-8.462997 -18.003998,-17.373001 -26.872993,-26.194992c-17.987,-16.980011 -36.212006,-33.70401 -54.288002,-50.589005c-11.23,-10.820999 -25.493,-18.427002 -35.033001,-30.981995c-3.150999,-3.553009 -3.369999,-9.058006 -1.275999,-13.186005z" stroke-miterlimit="10" stroke-width="0.1" stroke="#FFFFFF" fill="#007fff"/>
    <path d="m28.704,119.886002c2.511,-3.626999 6.037001,-6.730003 10.266001,-8.150002c4.150997,-0.889 7.583,2.314003 10.091999,5.179001c2.922001,3.809998 5.243999,8.045998 8.172001,11.855003c20.381996,26.962997 44.625,50.778 70.310997,72.654999c14.475006,12.061996 29.794998,23.052002 45.272003,33.776001c3.634003,2.696991 7.862991,4.955002 10.186996,9.013c-2.293991,6.291992 -7.806,11.369995 -13.910995,13.962997c-3.953003,1.678009 -7.632996,-1.209991 -10.298996,-3.835007c-4.145004,-4.559998 -8.151001,-9.253998 -12.62001,-13.503998c-9.214996,-8.462997 -18.003998,-17.373001 -26.872993,-26.194992c-17.987,-16.980011 -36.212006,-33.70401 -54.288002,-50.589005c-11.23,-10.820999 -25.493,-18.427002 -35.033001,-30.981995c-3.150999,-3.553009 -3.369999,-9.058006 -1.275999,-13.186005z" fill="#007fff"/>
   </g>
  </g>
 </g>
</svg>